<svg
  version="1.1"
  xmlns="http://www.w3.org/2000/svg"
  xmlns:xlink="http://www.w3.org/1999/xlink"
  viewBox="0 0 606.19 249.63"
  xml:space="preserve"
>
  <style type="text/css">
    .st0 {
      fill: #ffffff;
    }
    .st1 {
      fill: #0f5fdc;
    }
  </style>
  <path
    class="st0"
    d="M101.89,46.97v35.8H64.54v-35.8H45.23v90.14h19.31V99.38h37.35v37.73h19.31V46.97H101.89z M244.46,120.35V46.97
      h-19.33v73.65c0,10.69,5.81,16.49,16.49,16.49h43.92v-16.75H244.46z M285.53,46.97v16.61h26.64v73.53h19.31V63.58h26.66V46.97
      H285.53z M396.17,115.08c-1.43,5.54-6.19,8.37-13.4,8.37c-9.01,0-14.8-5.67-16.09-14.81h46.6c0.14-1.41,0.27-3.34,0.27-5.79
      c0-14.81-9.14-31.67-32.06-31.67c-22.03,0-32.06,16.86-32.06,33.35c0,16.34,11.33,33.6,33.34,33.6c15.97,0,28.33-9.01,30.9-23.05
      H396.17z M381.49,84.31c8.62,0,13.64,5.79,14.16,13.01h-28.72C368.49,88.29,373.37,84.31,381.49,84.31z M470.86,112.89
      c-1.29,5.79-6.56,9.78-13.12,9.78c-9.78,0-15.57-7.47-15.57-18.02c0-10.55,5.65-18.15,15.32-18.15c6.56,0,12.09,4.24,13.12,10.03
      h18.02c-1.16-15.06-14.68-25.36-31.67-25.36c-20.1,0-33.47,14.54-33.47,33.47c0,18.92,13.38,33.47,33.47,33.47
      c16.86,0,30.26-10.82,32.19-25.23H470.86z M537.03,71.18c-9.01,0-16.09,3.74-19.83,10.03V46.97h-17.9v90.14h17.9v-35.55
      c0-8.37,5.54-14.41,13.39-14.41c7.47,0,12.62,5.67,12.62,13.52v36.44h17.9V96.68C561.12,81.73,551.59,71.18,537.03,71.18z
      M133.33,91.08c0-30.33,19.6-46.01,41.96-46.01c21.04,0,36.46,12.85,38.73,32.26h-18.77c-1.2-9.38-9.44-15.68-19.96-15.68
      c-13.51,0-23.91,10.15-23.91,29.43c0,19.28,10.4,29.31,23.91,29.31c10.76,0,19.01-6.3,20.44-15.55h17.93
      c-1.55,19.28-16.97,32.26-38.37,32.26C152.57,137.1,133.33,121.42,133.33,91.08z M45.74,183.29h3.32c0.5,5.18,3.92,8.54,9.76,8.54
      c5.25,0,9.12-1.92,9.12-6.56c0-9.53-20.97-4.69-20.97-16.73c0-5.38,4.76-8.98,11.7-8.98c6.74,0,11.5,3.95,12.09,10.02h-3.32
      c-0.45-4.2-3.77-6.96-8.77-6.96c-5.2,0-8.28,2.27-8.28,5.92c0,9.33,21.06,3.95,21.06,16.73c0,6.22-5.5,9.62-12.64,9.62
      C51.09,194.89,46.24,190.3,45.74,183.29z M97.34,194.49h-3.12v-5.18c-1.29,3.75-4.46,5.58-8.43,5.58c-5.65,0-9.32-4-9.32-10.17
      v-15.1h3.12v14.71c0,4.64,2.63,7.7,6.64,7.7c4.66,0,7.98-3.75,7.98-9.03v-13.37h3.12V194.49z M116.27,169.23
      c-3.66,0-7.13,1.98-8.67,4.88v-4.48h-3.11v34.94h3.11V190c1.54,2.91,5.01,4.9,8.67,4.9c7.94,0,12.16-5.74,12.16-12.84
      S124.21,169.23,116.27,169.23z M116.18,192.03c-5.4,0-8.92-3.95-8.92-9.97s3.52-9.97,8.92-9.97c5.4,0,8.92,3.95,8.92,9.97
      S121.58,192.03,116.18,192.03z M152.12,186.65c-0.85,3.41-3.62,5.38-8.03,5.38c-5.01,0-8.88-4.1-9.08-9.67h19.98
      c0.04-0.35,0.1-1.19,0.1-1.63c0-6.87-4.61-11.5-11.45-11.5c-7.04,0-11.8,5.08-11.8,12.63c0,7.41,5.15,13.04,12.25,13.04
      c6.19,0,10.5-3.26,11.3-8.25H152.12z M143.64,172.09c4.76,0,7.83,2.81,8.17,7.4h-16.6C136.01,174.85,139.08,172.09,143.64,172.09z
      M164.35,169.62h8.48v2.86h-9.22v22.01h-3.12v-21.02C160.49,171,161.88,169.62,164.35,169.62z M173.92,182.06
      c0-6.51,4.02-12.83,11.95-12.83c5.3,0,10.26,3.06,11.1,8.54h-3.07c-0.5-3.26-3.91-5.67-8.03-5.67c-5.95,0-8.67,4.59-8.67,9.97
      c0,5.38,2.78,9.97,8.67,9.97c4.11,0,7.04-1.97,8.03-5.23h2.97c-0.89,4.98-4.71,8.09-11,8.09
      C177.94,194.89,173.92,188.57,173.92,182.06z M201.98,159.55h3.12v15.25c1.29-3.75,4.46-5.58,8.43-5.58c5.65,0,9.32,4,9.32,10.17
      v15.1h-3.12v-14.71c0-4.64-2.63-7.7-6.64-7.7c-4.66,0-7.98,3.75-7.98,9.03v13.37h-3.12V159.55z M238.81,169.23
      c-5.21,0-9.96,3.4-10.46,8.19h3.13c0.19-2.91,3.46-5.33,7.33-5.33c4.66,0,7.33,2.62,7.33,6.37c0,0.73-0.45,1.18-1.54,1.18h-6.04
      c-6.19,0-10.16,3.01-10.16,7.75c0,4.59,3.42,7.51,8.78,7.51c4.01,0,7.48-1.94,8.96-4.95v4.54h3.13v-16.03
      C249.27,172.93,245.35,169.23,238.81,169.23z M246.14,182.99c0,5.73-3.22,9.04-8.72,9.04c-3.47,0-5.7-1.83-5.7-4.64
      c0-3.16,2.67-5.13,6.84-5.13h7.58V182.99z M259.82,169.62h8.48v2.86h-9.22v22.01h-3.12v-21.02
      C255.95,171,257.34,169.62,259.82,169.62z M290.16,169.63v3.99c-1.58-2.57-5.21-4.39-8.68-4.39c-7.92,0-12.14,5.73-12.14,12.83
      s4.22,12.84,12.14,12.84c3.97,0,7.54-1.69,8.68-4.11v10.91h-17.6v2.87h16.86c2.47,0,3.86-1.39,3.86-3.86v-31.08H290.16z
      M281.59,192.03c-5.4,0-8.92-3.95-8.92-9.97s3.52-9.97,8.92-9.97s8.92,3.95,8.92,9.97S286.99,192.03,281.59,192.03z M300.07,159.55
      h3.77v5.03h-3.77V159.55z M300.42,169.62h3.12v24.87h-3.12V169.62z M310.68,169.62h3.12v5.18c1.29-3.75,4.46-5.58,8.43-5.58
      c5.65,0,9.32,4,9.32,10.17v15.1h-3.12v-14.71c0-4.64-2.63-7.7-6.64-7.7c-4.66,0-7.98,3.75-7.98,9.03v13.37h-3.12V169.62z
      M357.32,169.63v3.99c-1.59-2.57-5.2-4.39-8.67-4.39c-7.93,0-12.14,5.73-12.14,12.83s4.21,12.84,12.14,12.84
      c3.97,0,7.53-1.69,8.67-4.11v10.91h-17.59v2.87h16.85c2.48,0,3.87-1.39,3.87-3.86v-31.08H357.32z M348.74,192.03
      c-5.4,0-8.92-3.95-8.92-9.97s3.52-9.97,8.92-9.97c5.41,0,8.92,3.95,8.92,9.97S354.15,192.03,348.74,192.03z M392.02,159.95h-12.74
      v34.54h3.32v-14.51h9.42c6.69,0,10.86-4.04,10.86-10.01C402.88,164,398.71,159.95,392.02,159.95z M392.12,176.93h-9.52v-13.92h9.52
      c5.3,0,7.23,3.3,7.23,6.96C399.35,173.62,397.42,176.93,392.12,176.93z M410.85,169.62h8.48v2.86h-9.22v22.01h-3.12v-21.02
      C406.99,171,408.37,169.62,410.85,169.62z M433.02,169.23c-7.35,0-12.59,5.33-12.59,12.83s5.24,12.84,12.59,12.84
      c7.33,0,12.58-5.34,12.58-12.84S440.35,169.23,433.02,169.23z M433.02,192.03c-5.56,0-9.32-4.14-9.32-9.97s3.76-9.97,9.32-9.97
      c5.54,0,9.31,4.14,9.31,9.97S438.56,192.03,433.02,192.03z M469.84,169.63v3.99c-1.59-2.57-5.2-4.39-8.67-4.39
      c-7.93,0-12.15,5.73-12.15,12.83s4.22,12.84,12.15,12.84c3.96,0,7.53-1.69,8.67-4.11v10.91h-17.59v2.87h16.85
      c2.48,0,3.86-1.39,3.86-3.86v-31.08H469.84z M461.27,192.03c-5.41,0-8.93-3.95-8.93-9.97s3.52-9.97,8.93-9.97
      c5.4,0,8.92,3.95,8.92,9.97S466.67,192.03,461.27,192.03z M483.87,169.62h8.48v2.86h-9.22v22.01H480v-21.02
      C480,171,481.39,169.62,483.87,169.62z M513.7,186.65c-0.84,3.41-3.61,5.38-8.02,5.38c-5.01,0-8.87-4.1-9.07-9.67h19.97
      c0.05-0.35,0.1-1.19,0.1-1.63c0-6.87-4.61-11.5-11.45-11.5c-7.03,0-11.79,5.08-11.79,12.63c0,7.41,5.15,13.04,12.24,13.04
      c6.2,0,10.51-3.26,11.3-8.25H513.7z M505.23,172.09c4.76,0,7.83,2.81,8.18,7.4h-16.6C497.6,174.85,500.67,172.09,505.23,172.09z
      M520.15,186.65h3.12c0.35,3.5,2.68,5.38,6.64,5.38c3.47,0,5.75-1.97,5.75-4.24c0-8.14-14.92-0.94-14.92-11.74
      c0-4.15,3.47-6.81,8.82-6.81c5.3,0,8.92,2.96,9.22,7.45h-3.12c-0.4-3.5-3.92-4.59-6.3-4.59c-3.22,0-5.35,1.58-5.35,3.95
      c0,7.21,14.92,0.3,14.92,11.74c0,4.34-3.62,7.11-9.02,7.11C524.26,194.89,520.55,191.78,520.15,186.65z M542.26,186.65h3.12
      c0.35,3.5,2.68,5.38,6.64,5.38c3.47,0,5.75-1.97,5.75-4.24c0-8.14-14.92-0.94-14.92-11.74c0-4.15,3.47-6.81,8.82-6.81
      c5.3,0,8.92,2.96,9.22,7.45h-3.12c-0.4-3.5-3.92-4.59-6.3-4.59c-3.22,0-5.35,1.58-5.35,3.95c0,7.21,14.92,0.3,14.92,11.74
      c0,4.34-3.62,7.11-9.02,7.11C546.37,194.89,542.65,191.78,542.26,186.65z M564.02,161.77h8.15v1.65h-3.19v8.75h-1.77v-8.75h-3.19
      V161.77z M573.93,161.77h2.18l3.19,7.81l3.19-7.81h2.18v10.4h-1.73v-7.13l-2.89,7.13h-1.54l-2.85-7.13v7.13h-1.73V161.77z"
  />
</svg>
